<svg width="292" height="60" stroke="#666666" viewBox="0 0 292 60" fill="none" xmlns="http://www.w3.org/2000/svg">
<path d="M31.92 36.16H24.32L28.16 19.76L31.92 36.16ZM37.04 58H59.6L43.84 2H16.08L0.32 58H19.2L21.2 49.52H35.04L37.04 58ZM96.9619 58C110.642 58 118.082 52.56 118.082 42.96C118.082 35.52 113.762 30.32 103.202 29.2C112.002 27.68 116.482 22.56 116.482 16.32C116.482 8 111.042 2 97.6819 2H64.4019V58H96.9619ZM86.5619 14.08H90.0819C93.7619 14.08 95.0419 15.52 95.0419 18.8C95.0419 22.08 93.7619 23.6 90.0819 23.6H86.5619V14.08ZM86.5619 45.92V35.6H90.4019C94.0819 35.6 95.7619 36.88 95.7619 40.72C95.7619 44.56 94.0819 45.92 90.4019 45.92H86.5619ZM149.839 59.2C167.199 59.2 178.159 48.48 178.159 30.08V29.92C178.159 11.52 167.199 0.799997 149.839 0.799997C132.479 0.799997 121.519 11.52 121.519 29.92V30.08C121.519 48.48 132.479 59.2 149.839 59.2ZM149.839 45.44C146.399 45.44 144.639 42.4 144.639 30.08V29.92C144.639 17.6 146.399 14.56 149.839 14.56C153.279 14.56 155.039 17.6 155.039 29.92V30.08C155.039 42.4 153.279 45.44 149.839 45.44ZM206.003 37.76V2H183.923V34.8C183.923 50.72 193.283 59.2 210.083 59.2C226.723 59.2 236.163 50.72 236.163 34.8V2H214.803V37.76C214.803 42.32 213.283 44.24 210.403 44.24C207.603 44.24 206.003 42.32 206.003 37.76ZM291.426 17.92V2H241.906V17.92H255.506V58H277.826V17.92H291.426Z" fill="white"/>
</svg>
