<svg width="173" height="22" viewBox="0 0 173 22" fill="none" xmlns="http://www.w3.org/2000/svg">
<path d="M20.49 5.79C20.49 7.99 19.26 9.38 16.8 9.96L17.55 10.26C19.11 10.88 20.14 11.7 20.64 12.72C21.02 13.5 21.21 14.31 21.21 15.15C21.21 17.05 20.52 18.53 19.14 19.59C17.78 20.63 15.87 21.15 13.41 21.15C12.63 21.15 11.81 21.12 10.95 21.06L8.82 20.91C8.26 20.87 7.65 20.85 6.99 20.85C6.51 20.85 5.81 20.9 4.89 21C3.97 21.1 3.31 21.15 2.91 21.15H2.67C2.03 21.15 1.51 20.95 1.11 20.55C0.73 20.15 0.54 19.62 0.54 18.96C0.54 18.4 0.69 17.93 0.99 17.55C1.31 17.17 1.7 16.98 2.16 16.98C2.34 16.98 2.58 17.02 2.88 17.1C3.2 17.16 3.44 17.19 3.6 17.19C4.14 17.19 4.41 16.51 4.41 15.15V6.84C4.41 5.5 4.14 4.83 3.6 4.83C3.44 4.83 3.2 4.87 2.88 4.95C2.58 5.01 2.34 5.04 2.16 5.04C1.7 5.04 1.31 4.85 0.99 4.47C0.69 4.09 0.54 3.62 0.54 3.06C0.54 2.4 0.73 1.87 1.11 1.47C1.51 1.05 2.03 0.839998 2.67 0.839998C2.71 0.839998 2.75 0.839998 2.79 0.839998C2.85 0.859999 2.89 0.87 2.91 0.87L5.04 1.08C5.64 1.14 6.44 1.17 7.44 1.17C8.22 1.17 8.84 1.15 9.3 1.11L11.34 0.929999C11.8 0.89 12.47 0.87 13.35 0.87C14.67 0.87 15.86 1.01 16.92 1.29C17.98 1.57 18.84 2.13 19.5 2.97C20.16 3.79 20.49 4.73 20.49 5.79ZM9.57 7.8C9.57 8.2 9.65 8.45 9.81 8.55C9.91 8.63 10.16 8.67 10.56 8.67H11.49C12.53 8.67 13.35 8.48 13.95 8.1C14.57 7.72 14.88 7.21 14.88 6.57C14.88 5.23 13.84 4.56 11.76 4.56C11 4.56 10.48 4.62 10.2 4.74C9.78 4.94 9.57 5.37 9.57 6.03V7.8ZM15.6 14.94C15.6 14.12 15.23 13.46 14.49 12.96C13.75 12.46 12.77 12.21 11.55 12.21H10.65C10.21 12.21 9.92 12.28 9.78 12.42C9.64 12.54 9.57 12.78 9.57 13.14V15.33C9.57 16.09 9.79 16.62 10.23 16.92C10.67 17.2 11.47 17.34 12.63 17.34C13.51 17.34 14.22 17.12 14.76 16.68C15.32 16.24 15.6 15.66 15.6 14.94ZM30.9628 21.51C28.4828 21.51 26.5628 20.81 25.2028 19.41C23.8628 18.01 23.1928 16.04 23.1928 13.5C23.1928 10.98 23.8628 9.02 25.2028 7.62C26.5428 6.2 28.4228 5.49 30.8428 5.49C33.2228 5.49 35.0928 6.19 36.4528 7.59C37.8328 8.99 38.5228 10.91 38.5228 13.35C38.5228 15.91 37.8528 17.91 36.5128 19.35C35.1928 20.79 33.3428 21.51 30.9628 21.51ZM30.8428 9.18C29.9628 9.18 29.2628 9.57 28.7428 10.35C28.2428 11.11 27.9928 12.16 27.9928 13.5C27.9928 14.86 28.2428 15.92 28.7428 16.68C29.2628 17.44 29.9828 17.82 30.9028 17.82C32.7628 17.82 33.6928 16.38 33.6928 13.5C33.6928 10.62 32.7428 9.18 30.8428 9.18ZM47.8964 21.51C45.4164 21.51 43.4964 20.81 42.1364 19.41C40.7964 18.01 40.1264 16.04 40.1264 13.5C40.1264 10.98 40.7964 9.02 42.1364 7.62C43.4764 6.2 45.3564 5.49 47.7764 5.49C50.1564 5.49 52.0264 6.19 53.3864 7.59C54.7664 8.99 55.4564 10.91 55.4564 13.35C55.4564 15.91 54.7864 17.91 53.4464 19.35C52.1264 20.79 50.2764 21.51 47.8964 21.51ZM47.7764 9.18C46.8964 9.18 46.1964 9.57 45.6764 10.35C45.1764 11.11 44.9264 12.16 44.9264 13.5C44.9264 14.86 45.1764 15.92 45.6764 16.68C46.1964 17.44 46.9164 17.82 47.8364 17.82C49.6964 17.82 50.6264 16.38 50.6264 13.5C50.6264 10.62 49.6764 9.18 47.7764 9.18ZM64.02 1.95V12.15L65.43 10.92C65.55 10.82 65.78 10.62 66.12 10.32C66.66 9.86 66.93 9.5 66.93 9.24C66.93 9.08 66.84 8.92 66.66 8.76L66.18 8.31C65.92 8.07 65.79 7.73 65.79 7.29C65.79 6.37 66.31 5.91 67.35 5.91C67.71 5.91 68.26 5.95 69 6.03C69.74 6.11 70.3 6.15 70.68 6.15C71.26 6.15 71.98 6.11 72.84 6.03C73.7 5.95 74.15 5.91 74.19 5.91C75.37 5.91 75.96 6.51 75.96 7.71C75.96 8.87 75.5 9.45 74.58 9.45C74.4 9.45 74.18 9.42 73.92 9.36C73.66 9.3 73.46 9.27 73.32 9.27C73.04 9.27 72.6 9.49 72 9.93L70.74 10.86C70.22 11.24 69.96 11.54 69.96 11.76C69.96 11.86 70 11.97 70.08 12.09L70.35 12.48L72.69 16.17C73.33 17.19 73.84 17.7 74.22 17.7C74.34 17.7 74.5 17.67 74.7 17.61C75.12 17.55 75.33 17.52 75.33 17.52C76.23 17.52 76.68 18.09 76.68 19.23C76.68 20.49 76.09 21.12 74.91 21.12C74.59 21.12 74.11 21.08 73.47 21C72.83 20.92 72.35 20.88 72.03 20.88C71.49 20.88 70.96 20.92 70.44 21C69.92 21.08 69.54 21.12 69.3 21.12C68.9 21.12 68.55 20.96 68.25 20.64C67.95 20.32 67.8 19.94 67.8 19.5C67.8 19.26 67.92 18.91 68.16 18.45C68.3 18.25 68.37 18.06 68.37 17.88C68.37 17.64 68.15 17.21 67.71 16.59L66.72 15.21C66.34 14.69 66.11 14.43 66.03 14.43C65.83 14.43 65.52 14.62 65.1 15L64.02 15.99V16.59C64.02 17.35 64.18 17.73 64.5 17.73C64.62 17.73 64.79 17.7 65.01 17.64C65.23 17.58 65.41 17.55 65.55 17.55C66.37 17.55 66.78 18.03 66.78 18.99C66.78 20.41 66.21 21.12 65.07 21.12C64.79 21.12 64.36 21.08 63.78 21C63.2 20.92 62.35 20.88 61.23 20.88C60.61 20.88 60.09 20.91 59.67 20.97C58.99 21.07 58.53 21.12 58.29 21.12C57.75 21.12 57.31 20.94 56.97 20.58C56.63 20.2 56.46 19.72 56.46 19.14C56.46 18 56.95 17.43 57.93 17.43C57.91 17.43 58.16 17.49 58.68 17.61C58.76 17.63 58.83 17.64 58.89 17.64C59.25 17.64 59.43 17.08 59.43 15.96V5.97C59.43 4.85 59.26 4.29 58.92 4.29C58.78 4.29 58.6 4.33 58.38 4.41C58.26 4.45 58.1 4.47 57.9 4.47C56.94 4.47 56.46 3.92 56.46 2.82C56.46 1.48 57.1 0.809999 58.38 0.809999C58.7 0.809999 58.99 0.829999 59.25 0.87C59.89 0.97 60.39 1.02 60.75 1.02C61.03 1.02 61.47 0.98 62.07 0.899999C62.53 0.839999 62.86 0.809999 63.06 0.809999C63.7 0.809999 64.02 1.19 64.02 1.95ZM90.7148 17.19C91.3948 17.19 91.7348 16.57 91.7348 15.33V6.69C91.7348 5.35 91.2448 4.68 90.2648 4.68C89.2848 4.68 88.7948 5.02 88.7948 5.7C88.7948 5.9 88.8248 6.21 88.8848 6.63C88.9648 7.03 89.0048 7.33 89.0048 7.53C89.0048 9.31 88.2548 10.2 86.7548 10.2C86.0548 10.2 85.5048 9.98 85.1048 9.54C84.7048 9.08 84.5048 8.47 84.5048 7.71C84.5048 7.45 84.5448 6.98 84.6248 6.3C84.6848 5.78 84.7148 5.3 84.7148 4.86C84.7148 4.62 84.6848 4.13 84.6248 3.39C84.5848 2.89 84.5648 2.49 84.5648 2.19C84.5648 1.31 85.0048 0.87 85.8848 0.87C86.3448 0.87 86.9248 0.899999 87.6248 0.959999C89.2248 1.1 91.4648 1.17 94.3448 1.17C97.2448 1.17 99.4948 1.1 101.095 0.959999C101.795 0.899999 102.365 0.87 102.805 0.87C103.705 0.87 104.155 1.31 104.155 2.19C104.155 2.49 104.125 2.94 104.065 3.54C104.025 4.12 104.005 4.56 104.005 4.86C104.005 5.18 104.035 5.66 104.095 6.3C104.175 7.14 104.215 7.62 104.215 7.74C104.215 8.5 104.005 9.1 103.585 9.54C103.185 9.98 102.645 10.2 101.965 10.2C100.465 10.2 99.7148 9.34 99.7148 7.62C99.7148 7.38 99.7448 7.06 99.8048 6.66C99.8648 6.26 99.8948 5.96 99.8948 5.76C99.8948 5.04 99.4548 4.68 98.5748 4.68C97.9948 4.68 97.5848 4.83 97.3448 5.13C97.1048 5.43 96.9848 5.95 96.9848 6.69V15.33C96.9848 16.57 97.3248 17.19 98.0048 17.19C98.2248 17.19 98.5448 17.16 98.9648 17.1C99.4048 17.02 99.7348 16.98 99.9548 16.98C101.155 16.98 101.755 17.58 101.755 18.78C101.755 20.36 101.005 21.15 99.5048 21.15C98.9248 21.15 98.2348 21.11 97.4348 21.03C96.2348 20.91 95.2048 20.85 94.3448 20.85C93.4648 20.85 92.4348 20.91 91.2548 21.03C90.4748 21.11 89.7848 21.15 89.1848 21.15C87.6848 21.15 86.9348 20.42 86.9348 18.96C86.9348 17.64 87.5448 16.98 88.7648 16.98C88.9848 16.98 89.3048 17.02 89.7248 17.1C90.1648 17.16 90.4948 17.19 90.7148 17.19ZM111.756 6.84V9.39C112.036 8.37 112.366 7.62 112.746 7.14C113.626 6.04 114.856 5.49 116.436 5.49C117.536 5.49 118.456 5.85 119.196 6.57C119.956 7.27 120.336 8.14 120.336 9.18C120.336 10 120.096 10.68 119.616 11.22C119.136 11.74 118.526 12 117.786 12C117.226 12 116.746 11.82 116.346 11.46C115.966 11.1 115.776 10.66 115.776 10.14C115.776 9.86 115.906 9.47 116.166 8.97H115.986C114.646 8.97 113.746 9.68 113.286 11.1C112.926 12.24 112.746 13.55 112.746 15.03V16.17C112.746 16.89 112.806 17.35 112.926 17.55C113.006 17.67 113.146 17.73 113.346 17.73C113.526 17.73 113.776 17.69 114.096 17.61C114.416 17.53 114.656 17.49 114.816 17.49C115.256 17.49 115.626 17.65 115.926 17.97C116.246 18.27 116.406 18.64 116.406 19.08C116.406 19.66 116.206 20.15 115.806 20.55C115.426 20.93 114.956 21.12 114.396 21.12C114.096 21.12 113.536 21.07 112.716 20.97C112.216 20.91 111.586 20.88 110.826 20.88C110.066 20.88 109.396 20.91 108.816 20.97C107.856 21.07 107.266 21.12 107.046 21.12C105.806 21.12 105.186 20.45 105.186 19.11C105.186 17.99 105.666 17.43 106.626 17.43C106.786 17.43 106.966 17.47 107.166 17.55C107.366 17.61 107.516 17.64 107.616 17.64C107.956 17.64 108.126 17.08 108.126 15.96V11.1C108.126 9.96 107.956 9.39 107.616 9.39C107.536 9.39 107.376 9.43 107.136 9.51C106.916 9.57 106.746 9.6 106.626 9.6C105.666 9.6 105.186 9.05 105.186 7.95C105.186 7.35 105.346 6.86 105.666 6.48C105.986 6.1 106.396 5.91 106.896 5.91C107.096 5.91 107.376 5.95 107.736 6.03C108.096 6.11 108.436 6.15 108.756 6.15C108.996 6.15 109.346 6.11 109.806 6.03C110.266 5.95 110.606 5.91 110.826 5.91C111.446 5.91 111.756 6.22 111.756 6.84ZM134.339 21.51C132.699 21.51 131.599 20.85 131.039 19.53C129.639 20.85 127.979 21.51 126.059 21.51C124.479 21.51 123.219 21.1 122.279 20.28C121.339 19.44 120.869 18.33 120.869 16.95C120.869 14.85 121.779 13.49 123.599 12.87C124.379 12.61 125.279 12.39 126.299 12.21C127.719 11.97 128.679 11.7 129.179 11.4C129.699 11.08 129.959 10.6 129.959 9.96C129.959 9.5 129.759 9.12 129.359 8.82C128.979 8.5 128.499 8.34 127.919 8.34C127.259 8.34 126.929 8.55 126.929 8.97C126.929 9.11 126.939 9.25 126.959 9.39V9.51C126.959 10.07 126.719 10.54 126.239 10.92C125.779 11.3 125.199 11.49 124.499 11.49C123.699 11.49 123.039 11.25 122.519 10.77C121.999 10.29 121.739 9.69 121.739 8.97C121.739 7.89 122.309 7.04 123.449 6.42C124.589 5.8 126.159 5.49 128.159 5.49C130.319 5.49 131.929 5.82 132.989 6.48C134.129 7.2 134.699 8.54 134.699 10.5V16.71C134.699 17.35 134.859 17.67 135.179 17.67C135.339 17.67 135.489 17.66 135.629 17.64C135.689 17.62 135.759 17.61 135.839 17.61C136.299 17.61 136.689 17.77 137.009 18.09C137.329 18.41 137.489 18.8 137.489 19.26C137.489 19.92 137.189 20.46 136.589 20.88C136.009 21.3 135.259 21.51 134.339 21.51ZM129.989 15.09V14.43C129.849 14.51 128.969 14.76 127.349 15.18C126.249 15.46 125.699 15.89 125.699 16.47C125.699 17.39 126.239 17.85 127.319 17.85C129.099 17.85 129.989 16.93 129.989 15.09ZM144.69 5.7C146.21 5.7 147.61 6.29 148.89 7.47V5.31C148.89 4.59 148.64 4.23 148.14 4.23C148.02 4.23 147.78 4.25 147.42 4.29C147.16 4.37 146.9 4.41 146.64 4.41C146.26 4.41 145.94 4.25 145.68 3.93C145.42 3.61 145.29 3.21 145.29 2.73C145.29 1.45 145.97 0.809999 147.33 0.809999C147.77 0.809999 148.09 0.819999 148.29 0.839998C149.09 0.919999 149.63 0.959999 149.91 0.959999C150.17 0.959999 150.55 0.939999 151.05 0.899999C151.55 0.859999 151.92 0.839998 152.16 0.839998C152.66 0.839998 153 0.959999 153.18 1.2C153.38 1.42 153.48 1.84 153.48 2.46V16.11C153.48 17.13 153.67 17.64 154.05 17.64C154.17 17.64 154.32 17.61 154.5 17.55C154.62 17.51 154.78 17.49 154.98 17.49C155.84 17.49 156.27 18 156.27 19.02C156.27 19.64 156.12 20.15 155.82 20.55C155.52 20.93 155.12 21.12 154.62 21.12H154.44L153.39 20.94C153.15 20.9 152.81 20.88 152.37 20.88C151.85 20.88 151.42 20.9 151.08 20.94C150.58 21 150.31 21.03 150.27 21.03C149.65 21.03 149.34 20.67 149.34 19.95V18.84C148.3 20.62 146.74 21.51 144.66 21.51C142.82 21.51 141.3 20.76 140.1 19.26C138.92 17.74 138.33 15.83 138.33 13.53C138.33 11.19 138.91 9.3 140.07 7.86C141.25 6.42 142.79 5.7 144.69 5.7ZM145.74 9.48C145 9.48 144.39 9.83 143.91 10.53C143.45 11.23 143.19 12.18 143.13 13.38C143.13 13.38 143.13 13.51 143.13 13.77C143.13 14.99 143.36 15.95 143.82 16.65C144.3 17.35 144.94 17.7 145.74 17.7C146.62 17.7 147.33 17.32 147.87 16.56C148.43 15.8 148.71 14.79 148.71 13.53C148.71 12.31 148.44 11.33 147.9 10.59C147.36 9.85 146.64 9.48 145.74 9.48ZM172.071 12.21C172.071 13.05 171.961 13.61 171.741 13.89C171.541 14.17 171.131 14.31 170.511 14.31H163.191C162.831 14.31 162.601 14.35 162.501 14.43C162.421 14.49 162.381 14.66 162.381 14.94C162.381 15.78 162.651 16.48 163.191 17.04C163.731 17.6 164.411 17.88 165.231 17.88C166.071 17.88 166.931 17.42 167.811 16.5C168.411 15.86 169.071 15.54 169.791 15.54C170.391 15.54 170.871 15.71 171.231 16.05C171.611 16.39 171.801 16.82 171.801 17.34C171.801 18.5 171.161 19.49 169.881 20.31C168.621 21.11 167.081 21.51 165.261 21.51C162.881 21.51 160.981 20.79 159.561 19.35C158.141 17.91 157.431 15.99 157.431 13.59C157.431 11.17 158.131 9.22 159.531 7.74C160.951 6.24 162.801 5.49 165.081 5.49C167.201 5.49 168.891 6.1 170.151 7.32C171.431 8.54 172.071 10.17 172.071 12.21ZM162.531 10.71C162.531 10.83 162.561 10.93 162.621 11.01C162.681 11.09 162.891 11.13 163.251 11.13H166.611C166.911 11.13 167.091 11.1 167.151 11.04C167.231 10.96 167.271 10.83 167.271 10.65C167.271 10.13 167.041 9.68 166.581 9.3C166.121 8.9 165.581 8.7 164.961 8.7C164.161 8.7 163.511 9.01 163.011 9.63C162.691 10.03 162.531 10.39 162.531 10.71Z" fill="white"/>
</svg>
