<svg width="178" height="27" viewBox="0 0 178 27" stroke="#666" fill="none" xmlns="http://www.w3.org/2000/svg">
<path d="M0.72 13.364V13.436C0.72 21.428 5.328 26.54 13.5 26.54C20.556 26.54 24.768 23.372 25.344 16.352L16.2 15.632C15.912 19.556 15.156 20.348 13.68 20.348C11.88 20.348 11.124 19.052 11.124 13.436V13.364C11.124 7.64 11.916 6.452 13.68 6.452C15.228 6.452 15.84 7.568 16.128 10.988L25.2 10.268C24.516 4.22 21.132 0.259999 13.5 0.259999C5.364 0.259999 0.72 5.372 0.72 13.364ZM40.2348 26.54C48.0468 26.54 52.9788 21.716 52.9788 13.436V13.364C52.9788 5.084 48.0468 0.259999 40.2348 0.259999C32.4228 0.259999 27.4908 5.084 27.4908 13.364V13.436C27.4908 21.716 32.4228 26.54 40.2348 26.54ZM40.2348 20.348C38.6868 20.348 37.8948 18.98 37.8948 13.436V13.364C37.8948 7.82 38.6868 6.452 40.2348 6.452C41.7828 6.452 42.5748 7.82 42.5748 13.364V13.436C42.5748 18.98 41.7828 20.348 40.2348 20.348ZM64.1765 26V15.848L70.9805 26H79.2965V0.799998H70.8725V10.484L64.3925 0.799998H55.7165V26H64.1765ZM82.6279 26H92.5999V17.684H101.132V11.312H92.5999V7.28H102.608V0.799998H82.6279V26ZM105.359 26H115.331V0.799998H105.359V26ZM128.774 6.704H130.178C131.978 6.704 132.662 7.388 132.662 9.224C132.662 11.024 131.978 11.744 130.178 11.744H128.774V6.704ZM133.31 26H143.714L138.674 15.74C141.662 14.3 143.03 12.176 143.03 9.224C143.03 4.04 139.826 0.799998 132.086 0.799998H118.802V26H128.774V17.756H129.89L133.31 26ZM153.879 26V10.232L157.119 26H164.859L168.135 10.16V26H177.423V0.799998H164.211L161.799 13.724L159.387 0.799998H145.995V26H153.879Z" fill="white"/>
</svg>
