<svg width="656" height="60" viewBox="0 0 656 60" fill="none" stroke="#666" xmlns="http://www.w3.org/2000/svg">
<path d="M0.6 29.92V30.08C0.6 47.84 10.84 59.2 29 59.2C44.68 59.2 54.04 52.16 55.32 36.56L35 34.96C34.36 43.68 32.68 45.44 29.4 45.44C25.4 45.44 23.72 42.56 23.72 30.08V29.92C23.72 17.2 25.48 14.56 29.4 14.56C32.84 14.56 34.2 17.04 34.84 24.64L55 23.04C53.48 9.6 45.96 0.799997 29 0.799997C10.92 0.799997 0.6 12.16 0.6 29.92ZM88.4106 59.2C105.771 59.2 116.731 48.48 116.731 30.08V29.92C116.731 11.52 105.771 0.799997 88.4106 0.799997C71.0506 0.799997 60.0906 11.52 60.0906 29.92V30.08C60.0906 48.48 71.0506 59.2 88.4106 59.2ZM88.4106 45.44C84.9706 45.44 83.2106 42.4 83.2106 30.08V29.92C83.2106 17.6 84.9706 14.56 88.4106 14.56C91.8506 14.56 93.6106 17.6 93.6106 29.92V30.08C93.6106 42.4 91.8506 45.44 88.4106 45.44ZM141.614 58V35.44L156.734 58H175.214V2H156.494V23.52L142.094 2H122.814V58H141.614ZM182.618 58H204.778V39.52H223.738V25.36H204.778V16.4H227.018V2H182.618V58ZM233.131 58H255.291V2H233.131V58ZM285.165 15.12H288.285C292.285 15.12 293.805 16.64 293.805 20.72C293.805 24.72 292.285 26.32 288.285 26.32H285.165V15.12ZM295.245 58H318.365L307.165 35.2C313.805 32 316.845 27.28 316.845 20.72C316.845 9.2 309.725 2 292.525 2H263.005V58H285.165V39.68H287.645L295.245 58ZM340.953 58V22.96L348.153 58H365.353L372.633 22.8V58H393.273V2H363.913L358.553 30.72L353.193 2H323.433V58H340.953ZM429.698 36.16H422.098L425.938 19.76L429.698 36.16ZM434.818 58H457.378L441.618 2H413.858L398.098 58H416.978L418.978 49.52H432.818L434.818 58ZM505.186 17.92V2H455.666V17.92H469.266V58H491.586V17.92H505.186ZM511.6 58H533.76V2H511.6V58ZM568.514 59.2C585.874 59.2 596.834 48.48 596.834 30.08V29.92C596.834 11.52 585.874 0.799997 568.514 0.799997C551.154 0.799997 540.194 11.52 540.194 29.92V30.08C540.194 48.48 551.154 59.2 568.514 59.2ZM568.514 45.44C565.074 45.44 563.314 42.4 563.314 30.08V29.92C563.314 17.6 565.074 14.56 568.514 14.56C571.954 14.56 573.714 17.6 573.714 29.92V30.08C573.714 42.4 571.954 45.44 568.514 45.44ZM621.717 58V35.44L636.837 58H655.317V2H636.597V23.52L622.197 2H602.917V58H621.717Z" fill="white"/>
</svg>
