<?xml version="1.0" encoding="utf-8"?>
<!-- Generator: Adobe Illustrator 26.0.2, SVG Export Plug-In . SVG Version: 6.00 Build 0)  -->
<svg version="1.1" id="Layer_1" xmlns="http://www.w3.org/2000/svg" xmlns:xlink="http://www.w3.org/1999/xlink" x="0px" y="0px"
	 viewBox="0 0 78.1 77" style="enable-background:new 0 0 78.1 77;" xml:space="preserve">
<g>
	<path d="M34.4,18.5c-1.1-1.8-3.4-2.5-5.2-1.4l-1,0.6c-1.8,1.1-2.5,3.4-1.4,5.2l0.9,1.5l7.6-4.4L34.4,18.5z"/>
	<path d="M42.3,50l8.6,6.3c0.2,0.2,0.5,0,0.5-0.3l-1.2-10.5L36,21.2l-7.6,4.4L42.3,50L42.3,50z M50.2,51.8l-2.4,1.4L43.5,50
		c0.2,0,0.5-0.1,0.7-0.2c0.4-0.2,0.7-0.6,0.7-1.2l0-0.3l0.3,0.1c0.5,0.2,1,0.2,1.4-0.1c0.4-0.2,0.7-0.6,0.7-1.2l0-0.3l0.3,0.1
		c0.5,0.2,1,0.2,1.4-0.1c0.2-0.1,0.5-0.4,0.6-0.6L50.2,51.8z M33.9,26.2l10.7,18.5l-0.3,0.2L33.6,26.4L33.9,26.2z"/>
	<path d="M50.9,56.7c-0.4,0.7-0.9,1.2-1.5,1.4h0c-0.4,0.1-0.6,0.1-2.6,0L46.1,58l-0.2,0c-1.5-0.1-2.2-0.1-3,0.3
		c-0.3,0.2-0.6,0.4-0.8,0.6l-2-2l-0.7,0.7l2.8,2.8l0.4-0.5c0.1-0.2,0.4-0.5,0.8-0.7c0.6-0.3,1.1-0.3,2.5-0.2l0.8,0.1
		c2.1,0.2,2.5,0.2,3.1,0c0.8-0.3,1.5-0.9,2-1.9L50.9,56.7z"/>
	<path d="M39,75c-9.8,0-18.9-3.8-25.8-10.7S2.6,48.3,2.6,38.5s3.8-18.9,10.7-25.8S29.3,2,39,2S58,5.8,64.9,12.7s10.7,16.1,10.7,25.8
		s-3.8,18.9-10.7,25.8S48.8,75,39,75z M39,4.3C20.2,4.3,4.9,19.7,4.9,38.5S20.2,72.7,39,72.7s34.2-15.3,34.2-34.2S57.9,4.3,39,4.3z"
		/>
</g>
</svg>
