<svg width="406" height="48" viewBox="0 0 406 48" stroke="#666666" fill="none" xmlns="http://www.w3.org/2000/svg">
<path d="M32.2 1.688V12.952H14.408V19.224H27.208V29.912H14.408V47H0.2V1.688H32.2ZM52.5005 1.688V47H38.2925V1.688H52.5005ZM103.654 47H89.4455L74.4055 24.216V47H60.1975V1.688H74.4055L89.4455 24.856V1.688H103.654V47ZM130.232 1.688C134.968 1.688 139.107 2.648 142.648 4.568C146.232 6.488 148.984 9.15466 150.904 12.568C152.824 15.9813 153.785 19.864 153.785 24.216C153.785 28.5253 152.824 32.408 150.904 35.864C148.984 39.32 146.232 42.0507 142.648 44.056C139.107 46.0187 134.968 47 130.232 47H111.352V1.688H130.232ZM128.952 34.328C132.152 34.328 134.691 33.4533 136.568 31.704C138.446 29.9547 139.384 27.4587 139.384 24.216C139.384 20.9733 138.446 18.4773 136.568 16.728C134.691 14.9787 132.152 14.104 128.952 14.104H125.56V34.328H128.952ZM202.686 23.768C205.417 24.408 207.529 25.7307 209.022 27.736C210.558 29.6987 211.326 31.9813 211.326 34.584C211.326 38.552 210.003 41.624 207.358 43.8C204.755 45.9333 201.001 47 196.094 47H172.35V1.688H195.454C200.062 1.688 203.689 2.69067 206.334 4.696C208.979 6.70133 210.302 9.624 210.302 13.464C210.302 16.1093 209.598 18.3493 208.19 20.184C206.825 21.976 204.99 23.1707 202.686 23.768ZM186.558 19.352H192.062C193.342 19.352 194.281 19.096 194.878 18.584C195.518 18.072 195.838 17.2827 195.838 16.216C195.838 15.1067 195.518 14.296 194.878 13.784C194.281 13.2293 193.342 12.952 192.062 12.952H186.558V19.352ZM193.022 35.608C194.302 35.608 195.241 35.3733 195.838 34.904C196.478 34.392 196.798 33.5813 196.798 32.472C196.798 30.296 195.539 29.208 193.022 29.208H186.558V35.608H193.022ZM239.46 47.448C235.193 47.448 231.268 46.4453 227.684 44.44C224.143 42.4347 221.327 39.6613 219.236 36.12C217.145 32.5787 216.1 28.5893 216.1 24.152C216.1 19.7147 217.145 15.7253 219.236 12.184C221.327 8.64266 224.143 5.89066 227.684 3.928C231.268 1.92266 235.193 0.919998 239.46 0.919998C243.727 0.919998 247.631 1.92266 251.172 3.928C254.713 5.89066 257.508 8.64266 259.556 12.184C261.647 15.7253 262.692 19.7147 262.692 24.152C262.692 28.5893 261.647 32.5787 259.556 36.12C257.508 39.6613 254.692 42.4347 251.108 44.44C247.567 46.4453 243.684 47.448 239.46 47.448ZM239.46 34.2C242.276 34.2 244.452 33.304 245.988 31.512C247.524 29.6773 248.292 27.224 248.292 24.152C248.292 21.0373 247.524 18.584 245.988 16.792C244.452 14.9573 242.276 14.04 239.46 14.04C236.601 14.04 234.404 14.9573 232.868 16.792C231.332 18.584 230.564 21.0373 230.564 24.152C230.564 27.224 231.332 29.6773 232.868 31.512C234.404 33.304 236.601 34.2 239.46 34.2ZM291.177 47.448C286.911 47.448 282.985 46.4453 279.401 44.44C275.86 42.4347 273.044 39.6613 270.953 36.12C268.863 32.5787 267.817 28.5893 267.817 24.152C267.817 19.7147 268.863 15.7253 270.953 12.184C273.044 8.64266 275.86 5.89066 279.401 3.928C282.985 1.92266 286.911 0.919998 291.177 0.919998C295.444 0.919998 299.348 1.92266 302.889 3.928C306.431 5.89066 309.225 8.64266 311.273 12.184C313.364 15.7253 314.409 19.7147 314.409 24.152C314.409 28.5893 313.364 32.5787 311.273 36.12C309.225 39.6613 306.409 42.4347 302.825 44.44C299.284 46.4453 295.401 47.448 291.177 47.448ZM291.177 34.2C293.993 34.2 296.169 33.304 297.705 31.512C299.241 29.6773 300.009 27.224 300.009 24.152C300.009 21.0373 299.241 18.584 297.705 16.792C296.169 14.9573 293.993 14.04 291.177 14.04C288.319 14.04 286.121 14.9573 284.585 16.792C283.049 18.584 282.281 21.0373 282.281 24.152C282.281 27.224 283.049 29.6773 284.585 31.512C286.121 33.304 288.319 34.2 291.177 34.2ZM348.207 47L335.023 27.352V47H320.815V1.688H335.023V20.76L348.015 1.688H364.079L348.463 23.384L365.103 47H348.207ZM388.135 47.448C382.717 47.448 378.237 46.1893 374.695 43.672C371.197 41.112 369.298 37.3787 368.999 32.472H384.103C384.317 35.0747 385.469 36.376 387.559 36.376C388.327 36.376 388.967 36.2053 389.479 35.864C390.034 35.48 390.311 34.904 390.311 34.136C390.311 33.0693 389.735 32.216 388.583 31.576C387.431 30.8933 385.639 30.1253 383.207 29.272C380.306 28.248 377.895 27.2453 375.975 26.264C374.098 25.2827 372.477 23.8533 371.111 21.976C369.746 20.0987 369.085 17.688 369.127 14.744C369.127 11.8 369.874 9.304 371.367 7.256C372.903 5.16533 374.973 3.58666 377.575 2.52C380.221 1.45333 383.186 0.919998 386.471 0.919998C392.018 0.919998 396.413 2.2 399.655 4.76C402.941 7.32 404.669 10.9253 404.839 15.576H389.543C389.501 14.296 389.181 13.3787 388.583 12.824C387.986 12.2693 387.261 11.992 386.407 11.992C385.81 11.992 385.319 12.2053 384.935 12.632C384.551 13.016 384.359 13.5707 384.359 14.296C384.359 15.32 384.914 16.1733 386.023 16.856C387.175 17.496 388.989 18.2853 391.463 19.224C394.322 20.2907 396.669 21.3147 398.503 22.296C400.381 23.2773 402.002 24.6427 403.367 26.392C404.733 28.1413 405.415 30.3387 405.415 32.984C405.415 35.7573 404.733 38.2533 403.367 40.472C402.002 42.648 400.018 44.3547 397.415 45.592C394.813 46.8293 391.719 47.448 388.135 47.448Z" fill="white"/>
</svg>
