<svg width="27" height="27" viewBox="0 0 27 27" fill="none" xmlns="http://www.w3.org/2000/svg">
<path d="M27 23.6204V3.41678C27 1.55983 25.4773 0 23.5832 0H3.41678C1.55983 0 0 1.5227 0 3.41678V23.5832C0 25.4402 1.5227 27 3.41678 27H23.5832C25.4773 27 27 25.4773 27 23.6204ZM25.8858 23.6204C25.8858 24.8831 24.8459 25.923 23.5832 25.923H3.41678C2.15406 25.923 1.11417 24.8831 1.11417 23.6204V5.97937H25.8487V23.6204H25.8858ZM25.8858 4.8652H1.15131V3.45392C1.15131 2.1912 2.1912 1.15131 3.45392 1.15131H23.6204C24.8831 1.15131 25.923 2.1912 25.923 3.45392V4.8652H25.8858Z" fill="black"/>
<path d="M7.83629 10.4361H3.60245V14.6328H7.79915V10.4361H7.83629ZM7.09351 13.89H4.38237V11.1789H7.09351V13.89Z" fill="black"/>
<path d="M15.6354 10.4361H11.4016V14.6328H15.5983V10.4361H15.6354ZM14.8927 13.89H12.1815V11.1789H14.8927V13.89Z" fill="black"/>
<path d="M23.4347 10.4361H19.2008V14.6328H23.3975V10.4361H23.4347ZM22.6919 13.89H19.9808V11.1789H22.6919V13.89Z" fill="black"/>
<path d="M7.83629 17.121H3.60245V21.3177H7.79915V17.121H7.83629ZM7.09351 20.5749H4.38237V17.8638H7.09351V20.5749Z" fill="black"/>
<path d="M15.6354 17.121H11.4016V21.3177H15.5983V17.121H15.6354ZM14.8927 20.5749H12.1815V17.8638H14.8927V20.5749Z" fill="black"/>
<path d="M23.4347 17.121H19.2008V21.3177H23.3975V17.121H23.4347ZM22.6919 20.5749H19.9808V17.8638H22.6919V20.5749Z" fill="black"/>
</svg>
