<svg width="28" height="28" viewBox="0 0 28 28" fill="none" xmlns="http://www.w3.org/2000/svg">
<rect x="1" y="1" width="25" height="25" fill="#C4C4C4"/>
<path d="M6.31887 5.3741C6.23246 5.27448 6.1181 5.20278 5.99044 5.16817C5.86277 5.13356 5.72762 5.13763 5.6023 5.17986C5.52257 5.2105 5.45118 5.25929 5.39384 5.3223C5.31068 5.39073 5.24766 5.48021 5.21144 5.58129C5.19783 5.66275 5.19783 5.74588 5.21144 5.82734C5.21526 5.99783 5.28529 6.16024 5.40687 6.28057C5.45421 6.36088 5.5215 6.42776 5.6023 6.47482C5.68378 6.49316 5.76836 6.49316 5.84984 6.47482C5.93723 6.47608 6.02395 6.45949 6.10463 6.42607C6.18531 6.39266 6.25823 6.34314 6.31887 6.28057C6.43623 6.15744 6.50553 5.99672 6.5143 5.82734C6.53368 5.74645 6.53368 5.66218 6.5143 5.58129C6.46779 5.49694 6.40056 5.42566 6.31887 5.3741V5.3741Z" fill="black"/>
<path d="M21.4971 5.17981H9.77142C9.59865 5.17981 9.43296 5.24803 9.31079 5.36945C9.18863 5.49088 9.12 5.65557 9.12 5.82729C9.12 5.99901 9.18863 6.1637 9.31079 6.28513C9.43296 6.40655 9.59865 6.47477 9.77142 6.47477H21.4971C21.6699 6.47477 21.8356 6.40655 21.9578 6.28513C22.0799 6.1637 22.1486 5.99901 22.1486 5.82729C22.1486 5.65557 22.0799 5.49088 21.9578 5.36945C21.8356 5.24803 21.6699 5.17981 21.4971 5.17981Z" fill="black"/>
<path d="M6.31887 13.1439C6.23246 13.0443 6.1181 12.9726 5.99044 12.9379C5.86277 12.9033 5.72762 12.9074 5.6023 12.9496C5.52257 12.9803 5.45118 13.0291 5.39384 13.0921C5.32957 13.1589 5.28013 13.2384 5.24871 13.3254C5.21729 13.4123 5.20459 13.5049 5.21144 13.5971C5.19783 13.6786 5.19783 13.7617 5.21144 13.8432C5.24383 13.9216 5.29269 13.9922 5.35475 14.0503C5.4163 14.1378 5.50239 14.2054 5.6023 14.2446C5.68378 14.2629 5.76836 14.2629 5.84984 14.2446C5.93723 14.2459 6.02395 14.2293 6.10463 14.1958C6.18531 14.1624 6.25823 14.1129 6.31887 14.0503C6.37686 13.9915 6.42131 13.9208 6.44915 13.8432C6.46854 13.7623 6.46854 13.678 6.44915 13.5971C6.44397 13.4294 6.37937 13.2689 6.26675 13.1439H6.31887Z" fill="black"/>
<path d="M21.4971 12.9496H9.77142C9.59865 12.9496 9.43296 13.0178 9.31079 13.1392C9.18863 13.2607 9.12 13.4253 9.12 13.5971C9.12 13.7688 9.18863 13.9335 9.31079 14.0549C9.43296 14.1763 9.59865 14.2445 9.77142 14.2445H21.4971C21.6699 14.2445 21.8356 14.1763 21.9578 14.0549C22.0799 13.9335 22.1486 13.7688 22.1486 13.5971C22.1486 13.4253 22.0799 13.2607 21.9578 13.1392C21.8356 13.0178 21.6699 12.9496 21.4971 12.9496Z" fill="black"/>
<path d="M6.31887 20.9136C6.23247 20.814 6.11811 20.7423 5.99044 20.7077C5.86278 20.6731 5.72763 20.6772 5.6023 20.7194C5.52258 20.7501 5.45118 20.7988 5.39385 20.8619C5.33179 20.92 5.28293 20.9906 5.25053 21.069C5.23692 21.1505 5.23692 21.2336 5.25053 21.3151C5.23841 21.3967 5.23841 21.4796 5.25053 21.5611C5.28293 21.6395 5.33179 21.7102 5.39385 21.7683C5.43678 21.8694 5.50945 21.9551 5.6023 22.0144C5.68378 22.0327 5.76836 22.0327 5.84985 22.0144C5.93724 22.0156 6.02396 21.999 6.10464 21.9656C6.18532 21.9322 6.25824 21.8827 6.31887 21.8201C6.43624 21.697 6.50553 21.5363 6.5143 21.3669C6.53369 21.286 6.53369 21.2017 6.5143 21.1208C6.4678 21.0365 6.40057 20.9652 6.31887 20.9136V20.9136Z" fill="black"/>
<path d="M21.4971 20.7194H9.77142C9.59865 20.7194 9.43296 20.7876 9.31079 20.9091C9.18863 21.0305 9.12 21.1952 9.12 21.3669C9.12 21.5386 9.18863 21.7033 9.31079 21.8247C9.43296 21.9462 9.59865 22.0144 9.77142 22.0144H21.4971C21.6699 22.0144 21.8356 21.9462 21.9578 21.8247C22.0799 21.7033 22.1486 21.5386 22.1486 21.3669C22.1486 21.1952 22.0799 21.0305 21.9578 20.9091C21.8356 20.7876 21.6699 20.7194 21.4971 20.7194Z" fill="black"/>
<path d="M23.8162 0H3.54377C2.60391 0 1.70253 0.371098 1.03795 1.03166C0.373361 1.69222 0 2.58812 0 3.5223V23.6719C0 24.6061 0.373361 25.502 1.03795 26.1625C1.70253 26.8231 2.60391 27.1942 3.54377 27.1942H23.8162C24.7561 27.1942 25.6575 26.8231 26.3221 26.1625C26.9867 25.502 27.36 24.6061 27.36 23.6719V3.5223C27.36 2.58812 26.9867 1.69222 26.3221 1.03166C25.6575 0.371098 24.7561 0 23.8162 0V0ZM26.0572 23.6719C26.0572 24.2626 25.8211 24.8292 25.4008 25.2469C24.9806 25.6646 24.4106 25.8992 23.8162 25.8992H3.54377C2.94945 25.8992 2.37946 25.6646 1.95921 25.2469C1.53895 24.8292 1.30286 24.2626 1.30286 23.6719V3.5223C1.30286 2.93157 1.53895 2.36504 1.95921 1.94733C2.37946 1.52963 2.94945 1.29496 3.54377 1.29496H23.8162C24.4106 1.29496 24.9806 1.52963 25.4008 1.94733C25.8211 2.36504 26.0572 2.93157 26.0572 3.5223V23.6719Z" fill="black"/>
</svg>
