<svg width="263" height="50" viewBox="0 0 263 50" fill="none" xmlns="http://www.w3.org/2000/svg">
<path d="M57.6 22.52C58.9067 22.52 59.8667 22.1333 60.48 21.36C61.12 20.5867 61.44 19.5067 61.44 18.12C61.44 17.48 61.3867 16.88 61.28 16.32C61.1733 15.76 60.96 15.28 60.64 14.88C60.3467 14.48 59.9333 14.1733 59.4 13.96C58.8667 13.72 58.1733 13.6 57.32 13.6H56.72C56.64 13.6 56.5467 13.6 56.44 13.6C56.36 13.6 56.2667 13.6133 56.16 13.64C56.16 13.9867 56.1467 14.36 56.12 14.76C56.12 15.1333 56.12 15.64 56.12 16.28V18.72V22.52H57.6ZM56.12 29.92V32.72C56.12 33.44 56.12 34.0267 56.12 34.48C56.1467 34.9067 56.16 35.32 56.16 35.72C56.96 35.72 57.6933 35.6933 58.36 35.64C59.0267 35.5867 59.6 35.4 60.08 35.08C60.56 34.7333 60.9333 34.2 61.2 33.48C61.4667 32.76 61.6 31.7467 61.6 30.44C61.6 28.8933 61.28 27.7067 60.64 26.88C60.0267 26.0267 59.08 25.6 57.8 25.6H56.12V29.92ZM62.04 23.8C63.2133 23.9067 64.3333 24.1067 65.4 24.4C66.4933 24.6667 67.4533 25.08 68.28 25.64C69.1333 26.2 69.8133 26.9333 70.32 27.84C70.8267 28.7467 71.08 29.8667 71.08 31.2C71.08 32.6133 70.7467 33.8133 70.08 34.8C69.44 35.7867 68.6 36.6 67.56 37.24C66.52 37.8533 65.36 38.3067 64.08 38.6C62.8 38.8667 61.5333 39 60.28 39C59 39 57.56 38.9467 55.96 38.84C54.3867 38.7067 52.84 38.64 51.32 38.64C50.5733 38.64 49.8133 38.68 49.04 38.76C48.2933 38.84 47.56 38.92 46.84 39C46.92 37.6933 46.9733 36.6267 47 35.8C47.0533 34.9733 47.0933 34.2133 47.12 33.52C47.1733 32.8 47.2 32.08 47.2 31.36C47.2267 30.6133 47.24 29.6933 47.24 28.6V25.48V21.72V19.28C47.24 18.6133 47.2267 18.04 47.2 17.56C47.2 17.0533 47.2 16.52 47.2 15.96L46.96 10.36C48.8533 10.6 50.72 10.72 52.56 10.72C53.84 10.72 55.08 10.6667 56.28 10.56C57.48 10.4267 58.6933 10.36 59.92 10.36C60.96 10.36 62.0933 10.44 63.32 10.6C64.5467 10.76 65.6933 11.0933 66.76 11.6C67.8267 12.08 68.7067 12.7733 69.4 13.68C70.12 14.56 70.48 15.7467 70.48 17.24C70.48 17.72 70.3733 18.3067 70.16 19C69.9733 19.6933 69.5733 20.3733 68.96 21.04C68.3467 21.68 67.4933 22.2533 66.4 22.76C65.3067 23.24 63.8533 23.5333 62.04 23.64V23.8ZM88.5472 28.52C88.5472 27.5067 88.5205 26.52 88.4672 25.56C88.4405 24.6 88.3339 23.7467 88.1472 23C87.9872 22.2533 87.7205 21.6533 87.3472 21.2C87.0005 20.7467 86.4939 20.52 85.8272 20.52C85.2139 20.52 84.7205 20.72 84.3472 21.12C84.0005 21.4933 83.7339 22.0267 83.5472 22.72C83.3605 23.3867 83.2405 24.2 83.1872 25.16C83.1339 26.0933 83.1072 27.1067 83.1072 28.2C83.1072 29.2133 83.1205 30.2267 83.1472 31.24C83.1739 32.2267 83.2672 33.12 83.4272 33.92C83.6139 34.6933 83.8939 35.32 84.2672 35.8C84.6405 36.28 85.1605 36.52 85.8272 36.52C86.5205 36.52 87.0405 36.3067 87.3872 35.88C87.7605 35.4267 88.0272 34.8267 88.1872 34.08C88.3739 33.3333 88.4805 32.48 88.5072 31.52C88.5339 30.56 88.5472 29.56 88.5472 28.52ZM85.9072 17.88C87.8272 17.88 89.5205 18.16 90.9872 18.72C92.4539 19.28 93.6672 20.0533 94.6272 21.04C95.6139 22 96.3472 23.12 96.8272 24.4C97.3339 25.68 97.5872 27.04 97.5872 28.48C97.5872 30.2667 97.2805 31.8267 96.6672 33.16C96.0539 34.4933 95.2139 35.6 94.1472 36.48C93.1072 37.36 91.8672 38.0133 90.4272 38.44C88.9872 38.84 87.4405 39.04 85.7872 39.04C84.0805 39.04 82.5072 38.84 81.0672 38.44C79.6272 38.04 78.3872 37.4133 77.3472 36.56C76.3072 35.68 75.4939 34.5733 74.9072 33.24C74.3472 31.9067 74.0672 30.3333 74.0672 28.52C74.0672 26.7867 74.3739 25.2533 74.9872 23.92C75.6272 22.5867 76.4805 21.48 77.5472 20.6C78.6405 19.6933 79.8939 19.0133 81.3072 18.56C82.7472 18.1067 84.2805 17.88 85.9072 17.88ZM114.485 28.52C114.485 27.5067 114.458 26.52 114.405 25.56C114.378 24.6 114.271 23.7467 114.085 23C113.925 22.2533 113.658 21.6533 113.285 21.2C112.938 20.7467 112.431 20.52 111.765 20.52C111.151 20.52 110.658 20.72 110.285 21.12C109.938 21.4933 109.671 22.0267 109.485 22.72C109.298 23.3867 109.178 24.2 109.125 25.16C109.071 26.0933 109.045 27.1067 109.045 28.2C109.045 29.2133 109.058 30.2267 109.085 31.24C109.111 32.2267 109.205 33.12 109.365 33.92C109.551 34.6933 109.831 35.32 110.205 35.8C110.578 36.28 111.098 36.52 111.765 36.52C112.458 36.52 112.978 36.3067 113.325 35.88C113.698 35.4267 113.965 34.8267 114.125 34.08C114.311 33.3333 114.418 32.48 114.445 31.52C114.471 30.56 114.485 29.56 114.485 28.52ZM111.845 17.88C113.765 17.88 115.458 18.16 116.925 18.72C118.391 19.28 119.605 20.0533 120.565 21.04C121.551 22 122.285 23.12 122.765 24.4C123.271 25.68 123.525 27.04 123.525 28.48C123.525 30.2667 123.218 31.8267 122.605 33.16C121.991 34.4933 121.151 35.6 120.085 36.48C119.045 37.36 117.805 38.0133 116.365 38.44C114.925 38.84 113.378 39.04 111.725 39.04C110.018 39.04 108.445 38.84 107.005 38.44C105.565 38.04 104.325 37.4133 103.285 36.56C102.245 35.68 101.431 34.5733 100.845 33.24C100.285 31.9067 100.005 30.3333 100.005 28.52C100.005 26.7867 100.311 25.2533 100.925 23.92C101.565 22.5867 102.418 21.48 103.485 20.6C104.578 19.6933 105.831 19.0133 107.245 18.56C108.685 18.1067 110.218 17.88 111.845 17.88ZM127.142 18.2C127.142 16.6 127.102 15 127.022 13.4C126.969 11.8 126.889 10.2 126.782 8.6C127.316 8.70666 127.942 8.8 128.662 8.88C129.409 8.93333 130.276 8.96 131.262 8.96C132.276 8.96 133.129 8.93333 133.822 8.88C134.516 8.8 135.129 8.70666 135.662 8.6C135.502 11.3467 135.382 14.0933 135.302 16.84C135.249 19.56 135.222 22.32 135.222 25.12V26.88C135.782 26.2133 136.382 25.52 137.022 24.8C137.662 24.0533 138.289 23.3067 138.902 22.56C139.516 21.7867 140.102 21.0267 140.662 20.28C141.249 19.5067 141.756 18.76 142.182 18.04C142.716 18.1733 143.209 18.2667 143.662 18.32C144.116 18.3733 144.596 18.4 145.102 18.4C145.662 18.4 146.156 18.3733 146.582 18.32C147.009 18.24 147.489 18.1467 148.022 18.04V18.6C146.982 19.64 145.916 20.72 144.822 21.84C143.729 22.9333 142.622 24.08 141.502 25.28L148.222 37.36C148.329 37.52 148.422 37.68 148.502 37.84C148.582 37.9733 148.689 38.1067 148.822 38.24V39C147.382 38.76 145.916 38.64 144.422 38.64C142.849 38.64 141.302 38.76 139.782 39L135.262 29.84C135.262 31.12 135.302 32.4933 135.382 33.96C135.462 35.4 135.569 37.08 135.702 39C134.982 38.8933 134.249 38.8133 133.502 38.76C132.782 38.68 132.049 38.64 131.302 38.64C130.609 38.64 129.849 38.68 129.022 38.76C128.222 38.84 127.476 38.92 126.782 39C126.862 37.64 126.942 36.2933 127.022 34.96C127.102 33.6 127.142 32.24 127.142 30.88V18.2ZM160.969 31.12C161.102 31.8133 161.356 32.44 161.729 33C162.129 33.56 162.609 34.04 163.169 34.44C163.729 34.8133 164.356 35.1067 165.049 35.32C165.769 35.5333 166.516 35.64 167.289 35.64C167.769 35.64 168.249 35.5867 168.729 35.48C169.209 35.3733 169.636 35.2133 170.009 35C170.409 34.76 170.729 34.4533 170.969 34.08C171.209 33.7067 171.329 33.2667 171.329 32.76C171.329 32.28 171.222 31.8533 171.009 31.48C170.796 31.1067 170.422 30.7333 169.889 30.36C169.356 29.9867 168.649 29.6 167.769 29.2C166.889 28.7733 165.782 28.28 164.449 27.72C162.662 26.9733 161.209 25.9067 160.089 24.52C158.969 23.1067 158.409 21.3867 158.409 19.36C158.409 17.76 158.689 16.3733 159.249 15.2C159.809 14.0267 160.569 13.0533 161.529 12.28C162.489 11.5067 163.609 10.9333 164.889 10.56C166.196 10.16 167.582 9.96 169.049 9.96C170.489 9.96 171.916 10.12 173.329 10.44C174.742 10.76 176.129 11.1733 177.489 11.68C177.089 12.5867 176.742 13.5733 176.449 14.64C176.182 15.7067 176.009 16.7067 175.929 17.64H174.329C174.116 16.44 173.556 15.4267 172.649 14.6C171.769 13.7733 170.609 13.36 169.169 13.36C168.742 13.36 168.276 13.4133 167.769 13.52C167.289 13.6267 166.836 13.8 166.409 14.04C166.009 14.2533 165.676 14.5467 165.409 14.92C165.142 15.2667 165.009 15.7067 165.009 16.24C165.009 16.7467 165.142 17.1867 165.409 17.56C165.676 17.9067 166.036 18.2267 166.489 18.52C166.942 18.8133 167.489 19.0933 168.129 19.36C168.769 19.6267 169.449 19.92 170.169 20.24L173.249 21.6C175.036 22.3733 176.316 23.4133 177.089 24.72C177.862 26.0267 178.249 27.64 178.249 29.56C178.249 31.24 177.969 32.6933 177.409 33.92C176.849 35.1467 176.076 36.16 175.089 36.96C174.102 37.76 172.929 38.3467 171.569 38.72C170.209 39.0667 168.742 39.24 167.169 39.24C166.289 39.24 165.489 39.2 164.769 39.12C164.049 39.0667 163.342 38.9867 162.649 38.88C161.982 38.7733 161.302 38.6133 160.609 38.4C159.916 38.1867 159.169 37.9333 158.369 37.64C158.476 37.08 158.569 36.5733 158.649 36.12C158.756 35.64 158.849 35.16 158.929 34.68C159.009 34.1733 159.076 33.64 159.129 33.08C159.209 32.52 159.276 31.8667 159.329 31.12H160.969ZM206.72 27.64C207.173 26.04 207.6 24.44 208 22.84C208.4 21.24 208.787 19.64 209.16 18.04C209.613 18.1467 210.04 18.24 210.44 18.32C210.84 18.3733 211.253 18.4 211.68 18.4C212.187 18.4 212.613 18.3733 212.96 18.32C213.333 18.24 213.72 18.1467 214.12 18.04L213.44 19.84C212.933 21.1733 212.36 22.6933 211.72 24.4C211.107 26.08 210.493 27.8 209.88 29.56C209.267 31.32 208.68 33.0267 208.12 34.68C207.587 36.3067 207.147 37.7467 206.8 39C206.32 38.8933 205.827 38.8133 205.32 38.76C204.813 38.68 204.293 38.64 203.76 38.64C203.2 38.64 202.627 38.68 202.04 38.76C201.48 38.8133 200.92 38.8933 200.36 39C200.013 37.2933 199.533 35.4533 198.92 33.48C198.333 31.5067 197.653 29.28 196.88 26.8C196.24 28.8267 195.627 30.8533 195.04 32.88C194.453 34.88 193.88 36.92 193.32 39C192.813 38.8933 192.307 38.8133 191.8 38.76C191.32 38.68 190.813 38.64 190.28 38.64C189.693 38.64 189.12 38.68 188.56 38.76C188 38.8133 187.427 38.8933 186.84 39C186.707 38.3333 186.507 37.52 186.24 36.56C186 35.5733 185.707 34.5067 185.36 33.36C185.04 32.2133 184.68 31.0267 184.28 29.8C183.907 28.5467 183.52 27.3333 183.12 26.16C182.667 24.7733 182.173 23.4133 181.64 22.08C181.133 20.7467 180.6 19.4 180.04 18.04C180.84 18.1467 181.64 18.24 182.44 18.32C183.24 18.3733 184.053 18.4 184.88 18.4C185.68 18.4 186.48 18.3733 187.28 18.32C188.08 18.2667 188.867 18.1733 189.64 18.04C190.013 20.12 190.427 22.1867 190.88 24.24C191.333 26.2667 191.827 28.32 192.36 30.4C193.053 28.3733 193.653 26.3333 194.16 24.28C194.693 22.2 195.227 20.12 195.76 18.04C196.347 18.1467 196.933 18.24 197.52 18.32C198.133 18.3733 198.747 18.4 199.36 18.4C200.613 18.4 201.813 18.28 202.96 18.04C203.2 19.16 203.427 20.2133 203.64 21.2C203.853 22.1867 204.08 23.16 204.32 24.12C204.56 25.08 204.8 26.0667 205.04 27.08C205.307 28.0933 205.6 29.2 205.92 30.4L206.72 27.64ZM222.121 32.8C222.121 33.4933 222.228 34.1067 222.441 34.64C222.681 35.1467 223.135 35.4 223.801 35.4C224.415 35.4 224.881 35.2267 225.201 34.88C225.548 34.5333 225.721 34.0933 225.721 33.56V28.44C224.948 28.7333 224.321 29.0133 223.841 29.28C223.361 29.52 222.988 29.8 222.721 30.12C222.481 30.44 222.321 30.8133 222.241 31.24C222.161 31.64 222.121 32.16 222.121 32.8ZM214.201 33.68C214.201 32.6133 214.375 31.7333 214.721 31.04C215.095 30.32 215.601 29.72 216.241 29.24C216.908 28.76 217.681 28.36 218.561 28.04C219.468 27.72 220.441 27.4133 221.481 27.12C222.415 26.88 223.161 26.68 223.721 26.52C224.308 26.3333 224.748 26.1467 225.041 25.96C225.361 25.7733 225.575 25.56 225.681 25.32C225.788 25.08 225.841 24.7733 225.841 24.4C225.841 23.84 225.748 23.3867 225.561 23.04C225.401 22.6667 225.161 22.3867 224.841 22.2C224.521 21.9867 224.148 21.8533 223.721 21.8C223.295 21.72 222.841 21.68 222.361 21.68C221.481 21.68 220.641 21.84 219.841 22.16C219.041 22.48 218.415 23.04 217.961 23.84L216.801 23.76L216.001 20.2C217.441 19.4267 218.841 18.8533 220.201 18.48C221.588 18.1067 223.108 17.92 224.761 17.92C226.281 17.92 227.588 18.0933 228.681 18.44C229.801 18.7867 230.721 19.2533 231.441 19.84C232.161 20.4 232.695 21.0667 233.041 21.84C233.388 22.6133 233.561 23.4267 233.561 24.28C233.561 24.7867 233.548 25.4 233.521 26.12C233.495 26.8133 233.468 27.5333 233.441 28.28C233.441 29 233.428 29.7067 233.401 30.4C233.375 31.0667 233.361 31.64 233.361 32.12C233.361 32.6 233.361 33.0533 233.361 33.48C233.388 33.88 233.441 34.24 233.521 34.56C233.628 34.88 233.775 35.1333 233.961 35.32C234.148 35.48 234.415 35.56 234.761 35.56C235.241 35.56 235.735 35.4133 236.241 35.12C236.215 35.3333 236.188 35.5333 236.161 35.72C236.135 35.9067 236.121 36.1067 236.121 36.32C236.121 36.5067 236.135 36.6933 236.161 36.88C236.188 37.04 236.215 37.2133 236.241 37.4C235.495 37.96 234.615 38.4 233.601 38.72C232.588 39.0133 231.655 39.16 230.801 39.16C230.135 39.16 229.561 39.1067 229.081 39C228.601 38.92 228.188 38.7867 227.841 38.6C227.495 38.3867 227.188 38.1467 226.921 37.88C226.655 37.6133 226.415 37.3467 226.201 37.08C225.481 37.7733 224.615 38.2933 223.601 38.64C222.615 38.9867 221.615 39.16 220.601 39.16C219.695 39.16 218.841 39.0667 218.041 38.88C217.268 38.6933 216.588 38.3733 216.001 37.92C215.441 37.4667 215.001 36.8933 214.681 36.2C214.361 35.5067 214.201 34.6667 214.201 33.68ZM246.89 41.36C246.89 42.0533 246.903 42.7733 246.93 43.52C246.957 44.2933 246.983 45.04 247.01 45.76C247.037 46.5067 247.063 47.2 247.09 47.84C247.143 48.5067 247.183 49.0533 247.21 49.48C246.383 49.3733 245.623 49.28 244.93 49.2C244.263 49.1467 243.543 49.12 242.77 49.12C242.05 49.12 241.317 49.1467 240.57 49.2C239.823 49.28 239.077 49.3733 238.33 49.48C238.463 47.0533 238.557 44.64 238.61 42.24C238.663 39.84 238.69 37.5067 238.69 35.24C238.69 33 238.69 31.16 238.69 29.72C238.69 28.28 238.677 26.9867 238.65 25.84C238.623 24.6667 238.583 23.4933 238.53 22.32C238.503 21.1467 238.45 19.72 238.37 18.04C239.09 18.12 239.81 18.2 240.53 18.28C241.25 18.36 241.97 18.4 242.69 18.4C244.023 18.4 245.33 18.28 246.61 18.04L246.45 20.48C247.223 19.6267 248.01 18.9867 248.81 18.56C249.637 18.1333 250.65 17.92 251.85 17.92C253.317 17.92 254.61 18.2133 255.73 18.8C256.877 19.3867 257.837 20.1733 258.61 21.16C259.41 22.12 260.01 23.24 260.41 24.52C260.81 25.7733 261.01 27.08 261.01 28.44C261.01 29.7733 260.823 31.0933 260.45 32.4C260.077 33.68 259.517 34.8267 258.77 35.84C258.05 36.8533 257.13 37.6667 256.01 38.28C254.917 38.8667 253.637 39.16 252.17 39.16C250.97 39.16 249.957 39.0267 249.13 38.76C248.33 38.4933 247.583 37.9467 246.89 37.12V41.36ZM246.73 28.6C246.73 30.04 246.797 31.2267 246.93 32.16C247.063 33.0667 247.25 33.8 247.49 34.36C247.73 34.8933 248.01 35.2667 248.33 35.48C248.677 35.6933 249.05 35.8 249.45 35.8C250.383 35.8 251.063 35.28 251.49 34.24C251.917 33.2 252.13 31.4533 252.13 29C252.13 28.2267 252.117 27.4133 252.09 26.56C252.063 25.68 251.957 24.8667 251.77 24.12C251.61 23.3733 251.343 22.76 250.97 22.28C250.623 21.7733 250.117 21.52 249.45 21.52C248.81 21.52 248.303 21.76 247.93 22.24C247.557 22.6933 247.277 23.28 247.09 24C246.93 24.6933 246.823 25.4533 246.77 26.28C246.743 27.1067 246.73 27.88 246.73 28.6Z" fill="white"/>
<path fill-rule="evenodd" clip-rule="evenodd" d="M13.7654 6L18.6605 10.9224L10.0034 19.2609L18.9818 27.916L14.0847 32.8364L0 19.2589L13.7654 6Z" fill="white"/>
<path fill-rule="evenodd" clip-rule="evenodd" d="M22.2346 13.8546L17.3395 18.7769L25.9966 27.1154L17.0182 35.7705L21.9153 40.6909L36 27.1134L22.2346 13.8546Z" fill="white"/>
</svg>
