<svg width="409" height="60"  stroke="#666666" viewBox="0 0 409 60" fill="none" xmlns="http://www.w3.org/2000/svg">
<path d="M18.4 58V22.96L25.6 58H42.8L50.08 22.8V58H70.72V1.99999H41.36L36 30.72L30.64 1.99999H0.880001V58H18.4Z" fill="white"/>
<path d="M107.145 36.16H99.545L103.385 19.76L107.145 36.16ZM112.265 58H134.825L119.065 1.99999H91.305L75.545 58H94.425L96.425 49.52H110.265L112.265 58Z" fill="white"/>
<path d="M182.633 17.92V1.99999H133.112V17.92H146.712V58H169.032V17.92H182.633Z" fill="white"/>
<path d="M185.416 29.92V30.08C185.416 47.84 195.656 59.2 213.816 59.2C229.496 59.2 238.856 52.16 240.136 36.56L219.816 34.96C219.176 43.68 217.496 45.44 214.216 45.44C210.216 45.44 208.536 42.56 208.536 30.08V29.92C208.536 17.2 210.296 14.56 214.216 14.56C217.656 14.56 219.016 17.04 219.656 24.64L239.816 23.04C238.296 9.59999 230.776 0.799988 213.816 0.799988C195.736 0.799988 185.416 12.16 185.416 29.92Z" fill="white"/>
<path d="M246.186 58H268.346V38.56H277.066V58H299.146V1.99999H277.066V21.28H268.346V1.99999H246.186V58Z" fill="white"/>
<path d="M306.614 58H351.254V43.6H328.774V36.56H347.494V22.4H328.774V16.4H351.254V1.99999H306.614V58Z" fill="white"/>
<path d="M382.698 59.2C399.178 59.2 408.298 50.88 408.298 38.96C408.298 29.44 403.178 23.04 389.418 20.4L383.178 19.2C380.298 18.64 379.418 17.92 379.418 16.72C379.418 15.36 380.618 14.48 383.898 14.48C388.458 14.48 393.818 16.24 399.418 19.84L406.778 7.19999C399.498 2.87999 391.498 0.799988 383.658 0.799988C366.698 0.799988 357.338 8.87999 357.338 20.32C357.338 30.4 362.778 35.84 374.218 38.16L380.458 39.44C384.058 40.16 385.018 41.04 385.018 42.48C385.018 44 383.738 45.04 380.778 45.04C375.898 45.04 369.578 42.88 362.938 38.32L355.418 51.28C361.898 56.08 372.218 59.2 382.698 59.2Z" fill="white"/>
</svg>
