<svg width="493" height="47" viewBox="0 0 493 47" stroke="#666666" fill="none" xmlns="http://www.w3.org/2000/svg">
<path d="M14.32 46V17.968L20.08 46H33.84L39.664 17.84V46H56.176V1.2H32.688L28.4 24.176L24.112 1.2H0.304V46H14.32ZM85.316 28.528H79.236L82.308 15.408L85.316 28.528ZM89.412 46H107.46L94.852 1.2H72.644L60.036 46H75.14L76.74 39.216H87.812L89.412 46ZM145.706 13.936V1.2H106.09V13.936H116.97V46H134.826V13.936H145.706ZM147.932 23.536V23.664C147.932 37.872 156.124 46.96 170.652 46.96C183.196 46.96 190.684 41.328 191.708 28.848L175.452 27.568C174.94 34.544 173.596 35.952 170.972 35.952C167.772 35.952 166.428 33.648 166.428 23.664V23.536C166.428 13.36 167.836 11.248 170.972 11.248C173.724 11.248 174.812 13.232 175.324 19.312L191.452 18.032C190.236 7.28 184.22 0.239998 170.652 0.239998C156.188 0.239998 147.932 9.328 147.932 23.536ZM196.549 46H214.277V30.448H221.253V46H238.917V1.2H221.253V16.624H214.277V1.2H196.549V46ZM284.969 46C295.913 46 301.865 41.648 301.865 33.968C301.865 28.016 298.409 23.856 289.961 22.96C297.001 21.744 300.585 17.648 300.585 12.656C300.585 6 296.233 1.2 285.545 1.2H258.921V46H284.969ZM276.649 10.864H279.465C282.409 10.864 283.433 12.016 283.433 14.64C283.433 17.264 282.409 18.48 279.465 18.48H276.649V10.864ZM276.649 36.336V28.08H279.721C282.665 28.08 284.009 29.104 284.009 32.176C284.009 35.248 282.665 36.336 279.721 36.336H276.649ZM327.271 46.96C341.159 46.96 349.927 38.384 349.927 23.664V23.536C349.927 8.816 341.159 0.239998 327.271 0.239998C313.383 0.239998 304.615 8.816 304.615 23.536V23.664C304.615 38.384 313.383 46.96 327.271 46.96ZM327.271 35.952C324.519 35.952 323.111 33.52 323.111 23.664V23.536C323.111 13.68 324.519 11.248 327.271 11.248C330.023 11.248 331.431 13.68 331.431 23.536V23.664C331.431 33.52 330.023 35.952 327.271 35.952ZM376.426 46.96C390.314 46.96 399.082 38.384 399.082 23.664V23.536C399.082 8.816 390.314 0.239998 376.426 0.239998C362.538 0.239998 353.77 8.816 353.77 23.536V23.664C353.77 38.384 362.538 46.96 376.426 46.96ZM376.426 35.952C373.674 35.952 372.266 33.52 372.266 23.664V23.536C372.266 13.68 373.674 11.248 376.426 11.248C379.178 11.248 380.586 13.68 380.586 23.536V23.664C380.586 33.52 379.178 35.952 376.426 35.952ZM429.421 46H449.069L436.909 19.056L447.789 1.2H429.165L421.677 15.792V1.2H403.949V46H421.677V36.144L424.045 32.496L429.421 46ZM471.566 46.96C484.75 46.96 492.046 40.304 492.046 30.768C492.046 23.152 487.95 18.032 476.942 15.92L471.95 14.96C469.646 14.512 468.942 13.936 468.942 12.976C468.942 11.888 469.902 11.184 472.526 11.184C476.174 11.184 480.462 12.592 484.942 15.472L490.83 5.36C485.006 1.904 478.606 0.239998 472.334 0.239998C458.766 0.239998 451.278 6.704 451.278 15.856C451.278 23.92 455.63 28.272 464.782 30.128L469.774 31.152C472.654 31.728 473.422 32.432 473.422 33.584C473.422 34.8 472.398 35.632 470.03 35.632C466.126 35.632 461.07 33.904 455.758 30.256L449.742 40.624C454.926 44.464 463.182 46.96 471.566 46.96Z" fill="#fff"/>
</svg>
