<svg width="356" height="48" stroke="#666666" viewBox="0 0 356 48" fill="none" xmlns="http://www.w3.org/2000/svg">
<path d="M54.664 1.688V47H40.52V24.408L33.544 47H21.384L14.408 24.408V47H0.2V1.688H17.608L27.592 28.888L37.32 1.688H54.664ZM105.875 1.688L89.619 33.24V47H75.411V33.24L59.155 1.688H75.411L82.643 17.752L89.875 1.688H105.875ZM152.876 23.768C155.607 24.408 157.719 25.7307 159.212 27.736C160.748 29.6987 161.516 31.9813 161.516 34.584C161.516 38.552 160.193 41.624 157.548 43.8C154.945 45.9333 151.191 47 146.284 47H122.54V1.688H145.644C150.252 1.688 153.879 2.69067 156.524 4.696C159.169 6.70133 160.492 9.624 160.492 13.464C160.492 16.1093 159.788 18.3493 158.38 20.184C157.015 21.976 155.18 23.1707 152.876 23.768ZM136.748 19.352H142.252C143.532 19.352 144.471 19.096 145.068 18.584C145.708 18.072 146.028 17.2827 146.028 16.216C146.028 15.1067 145.708 14.296 145.068 13.784C144.471 13.2293 143.532 12.952 142.252 12.952H136.748V19.352ZM143.212 35.608C144.492 35.608 145.431 35.3733 146.028 34.904C146.668 34.392 146.988 33.5813 146.988 32.472C146.988 30.296 145.729 29.208 143.212 29.208H136.748V35.608H143.212ZM189.65 47.448C185.383 47.448 181.458 46.4453 177.874 44.44C174.333 42.4347 171.517 39.6613 169.426 36.12C167.335 32.5787 166.29 28.5893 166.29 24.152C166.29 19.7147 167.335 15.7253 169.426 12.184C171.517 8.64266 174.333 5.89066 177.874 3.928C181.458 1.92266 185.383 0.919998 189.65 0.919998C193.917 0.919998 197.821 1.92266 201.362 3.928C204.903 5.89066 207.698 8.64266 209.746 12.184C211.837 15.7253 212.882 19.7147 212.882 24.152C212.882 28.5893 211.837 32.5787 209.746 36.12C207.698 39.6613 204.882 42.4347 201.298 44.44C197.757 46.4453 193.874 47.448 189.65 47.448ZM189.65 34.2C192.466 34.2 194.642 33.304 196.178 31.512C197.714 29.6773 198.482 27.224 198.482 24.152C198.482 21.0373 197.714 18.584 196.178 16.792C194.642 14.9573 192.466 14.04 189.65 14.04C186.791 14.04 184.594 14.9573 183.058 16.792C181.522 18.584 180.754 21.0373 180.754 24.152C180.754 27.224 181.522 29.6773 183.058 31.512C184.594 33.304 186.791 34.2 189.65 34.2ZM241.367 47.448C237.101 47.448 233.175 46.4453 229.591 44.44C226.05 42.4347 223.234 39.6613 221.143 36.12C219.053 32.5787 218.007 28.5893 218.007 24.152C218.007 19.7147 219.053 15.7253 221.143 12.184C223.234 8.64266 226.05 5.89066 229.591 3.928C233.175 1.92266 237.101 0.919998 241.367 0.919998C245.634 0.919998 249.538 1.92266 253.079 3.928C256.621 5.89066 259.415 8.64266 261.463 12.184C263.554 15.7253 264.599 19.7147 264.599 24.152C264.599 28.5893 263.554 32.5787 261.463 36.12C259.415 39.6613 256.599 42.4347 253.015 44.44C249.474 46.4453 245.591 47.448 241.367 47.448ZM241.367 34.2C244.183 34.2 246.359 33.304 247.895 31.512C249.431 29.6773 250.199 27.224 250.199 24.152C250.199 21.0373 249.431 18.584 247.895 16.792C246.359 14.9573 244.183 14.04 241.367 14.04C238.509 14.04 236.311 14.9573 234.775 16.792C233.239 18.584 232.471 21.0373 232.471 24.152C232.471 27.224 233.239 29.6773 234.775 31.512C236.311 33.304 238.509 34.2 241.367 34.2ZM298.397 47L285.213 27.352V47H271.005V1.688H285.213V20.76L298.205 1.688H314.269L298.653 23.384L315.293 47H298.397ZM338.325 47.448C332.907 47.448 328.427 46.1893 324.885 43.672C321.387 41.112 319.488 37.3787 319.189 32.472H334.293C334.507 35.0747 335.659 36.376 337.749 36.376C338.517 36.376 339.157 36.2053 339.669 35.864C340.224 35.48 340.501 34.904 340.501 34.136C340.501 33.0693 339.925 32.216 338.773 31.576C337.621 30.8933 335.829 30.1253 333.397 29.272C330.496 28.248 328.085 27.2453 326.165 26.264C324.288 25.2827 322.667 23.8533 321.301 21.976C319.936 20.0987 319.275 17.688 319.317 14.744C319.317 11.8 320.064 9.304 321.557 7.256C323.093 5.16533 325.163 3.58666 327.765 2.52C330.411 1.45333 333.376 0.919998 336.661 0.919998C342.208 0.919998 346.603 2.2 349.845 4.76C353.131 7.32 354.859 10.9253 355.029 15.576H339.733C339.691 14.296 339.371 13.3787 338.773 12.824C338.176 12.2693 337.451 11.992 336.597 11.992C336 11.992 335.509 12.2053 335.125 12.632C334.741 13.016 334.549 13.5707 334.549 14.296C334.549 15.32 335.104 16.1733 336.213 16.856C337.365 17.496 339.179 18.2853 341.653 19.224C344.512 20.2907 346.859 21.3147 348.693 22.296C350.571 23.2773 352.192 24.6427 353.557 26.392C354.923 28.1413 355.605 30.3387 355.605 32.984C355.605 35.7573 354.923 38.2533 353.557 40.472C352.192 42.648 350.208 44.3547 347.605 45.592C345.003 46.8293 341.909 47.448 338.325 47.448Z" fill="white"/>
</svg>
