<svg width="564" height="60" stroke="#666666" viewBox="0 0 564 60" fill="#ffffff" xmlns="http://www.w3.org/2000/svg">
<path d="M18.4 58V22.96L25.6 58H42.8L50.08 22.8V58H70.72V2H41.36L36 30.72L30.64 2H0.88V58H18.4ZM115.625 58V40.4L133.465 2H114.265L106.505 20.32L98.665 2H75.785L93.545 40.4V58H115.625ZM173.513 58V22.96L180.713 58H197.913L205.193 22.8V58H225.833V2H196.473L191.113 30.72L185.753 2H155.993V58H173.513ZM262.257 36.16H254.657L258.497 19.76L262.257 36.16ZM267.377 58H289.937L274.177 2H246.417L230.657 58H249.537L251.537 49.52H265.377L267.377 58ZM337.745 17.92V2H288.225V17.92H301.825V58H324.145V17.92H337.745ZM340.528 29.92V30.08C340.528 47.84 350.768 59.2 368.928 59.2C384.608 59.2 393.968 52.16 395.248 36.56L374.928 34.96C374.288 43.68 372.608 45.44 369.328 45.44C365.328 45.44 363.648 42.56 363.648 30.08V29.92C363.648 17.2 365.408 14.56 369.328 14.56C372.768 14.56 374.128 17.04 374.768 24.64L394.928 23.04C393.408 9.6 385.888 0.799997 368.928 0.799997C350.848 0.799997 340.528 12.16 340.528 29.92ZM401.299 58H423.459V38.56H432.179V58H454.259V2H432.179V21.28H423.459V2H401.299V58ZM461.727 58H506.367V43.6H483.887V36.56H502.607V22.4H483.887V16.4H506.367V2H461.727V58ZM537.811 59.2C554.291 59.2 563.411 50.88 563.411 38.96C563.411 29.44 558.291 23.04 544.531 20.4L538.291 19.2C535.411 18.64 534.531 17.92 534.531 16.72C534.531 15.36 535.731 14.48 539.011 14.48C543.571 14.48 548.931 16.24 554.531 19.84L561.891 7.2C554.611 2.88 546.611 0.799997 538.771 0.799997C521.811 0.799997 512.451 8.88 512.451 20.32C512.451 30.4 517.891 35.84 529.331 38.16L535.571 39.44C539.171 40.16 540.131 41.04 540.131 42.48C540.131 44 538.851 45.04 535.891 45.04C531.011 45.04 524.691 42.88 518.051 38.32L510.531 51.28C517.011 56.08 527.331 59.2 537.811 59.2Z" fill="#ffffff"/>
</svg>
