<svg width="420" height="60" stroke="#666666" viewBox="0 0 420 60" fill="none" xmlns="http://www.w3.org/2000/svg">
<path d="M27.52 59.2C44 59.2 53.12 50.88 53.12 38.96C53.12 29.44 48 23.04 34.24 20.4L28 19.2C25.12 18.64 24.24 17.92 24.24 16.72C24.24 15.36 25.44 14.48 28.72 14.48C33.28 14.48 38.64 16.24 44.24 19.84L51.6 7.2C44.32 2.88 36.32 0.799997 28.48 0.799997C11.52 0.799997 2.16 8.88 2.16 20.32C2.16 30.4 7.6 35.84 19.04 38.16L25.28 39.44C28.88 40.16 29.84 41.04 29.84 42.48C29.84 44 28.56 45.04 25.6 45.04C20.72 45.04 14.4 42.88 7.76 38.32L0.24 51.28C6.72 56.08 17.04 59.2 27.52 59.2ZM59.5581 58H104.198V43.6H81.7181V36.56H100.438V22.4H81.7181V16.4H104.198V2H59.5581V58ZM159.242 17.92V2H109.722V17.92H123.322V58H145.642V17.92H159.242ZM213.342 17.92V2H163.822V17.92H177.422V58H199.742V17.92H213.342ZM219.756 58H241.916V2H219.756V58ZM268.43 58V35.44L283.55 58H302.03V2H283.31V23.52L268.91 2H249.63V58H268.43ZM346.713 58H362.713V25.28H335.593V38.4H342.393V39.68C342.393 43.68 340.233 45.92 337.353 45.92C332.873 45.92 331.273 43.2 331.273 30.08V29.92C331.273 17.2 332.953 14.56 337.433 14.56C340.473 14.56 342.473 16.48 342.873 20.56L362.393 18.8C360.953 7.28 353.113 0.799997 336.793 0.799997C318.153 0.799997 308.153 12.4 308.153 29.92V30.08C308.153 50.24 318.313 59.2 331.353 59.2C338.473 59.2 343.353 56.56 345.673 51.12L346.713 58ZM394.111 59.2C410.591 59.2 419.711 50.88 419.711 38.96C419.711 29.44 414.591 23.04 400.831 20.4L394.591 19.2C391.711 18.64 390.831 17.92 390.831 16.72C390.831 15.36 392.031 14.48 395.311 14.48C399.871 14.48 405.231 16.24 410.831 19.84L418.191 7.2C410.911 2.88 402.911 0.799997 395.071 0.799997C378.111 0.799997 368.751 8.88 368.751 20.32C368.751 30.4 374.191 35.84 385.631 38.16L391.871 39.44C395.471 40.16 396.431 41.04 396.431 42.48C396.431 44 395.151 45.04 392.191 45.04C387.311 45.04 380.991 42.88 374.351 38.32L366.831 51.28C373.311 56.08 383.631 59.2 394.111 59.2Z" fill="white"/>
</svg>
