<?xml version="1.0" encoding="utf-8"?>
<!-- Generator: Adobe Illustrator 25.3.1, SVG Export Plug-In . SVG Version: 6.00 Build 0)  -->
<svg version="1.1"
	 id="Layer_1" xmlns:cc="http://creativecommons.org/ns#" xmlns:dc="http://purl.org/dc/elements/1.1/" xmlns:inkscape="http://www.inkscape.org/namespaces/inkscape" xmlns:rdf="http://www.w3.org/1999/02/22-rdf-syntax-ns#" xmlns:sodipodi="http://sodipodi.sourceforge.net/DTD/sodipodi-0.dtd" xmlns:svg="http://www.w3.org/2000/svg"
	 xmlns="http://www.w3.org/2000/svg" xmlns:xlink="http://www.w3.org/1999/xlink" x="0px" y="0px" viewBox="0 0 100 100.7"
	 style="enable-background:new 0 0 100 100.7;" xml:space="preserve">
<style type="text/css">
	.st0{fill:#1641AF;}
</style>
<g transform="translate(0,-952.36218)">
	<path class="st0" d="M39.8,957.8c-1,0.1-1.8,1-1.8,2v18h-3c-1.1,0-2,0.9-2,2c0,0.5,0.2,1,0.6,1.4l5,5l4,4c0.8,0.8,2,0.8,2.8,0l4-4
		l5-5c0.8-0.8,0.8-2.1,0-2.8c-0.4-0.4-0.9-0.6-1.4-0.6h-3v-18c0-1.1-0.9-2-2-2h-4h-4C39.9,957.8,39.9,957.8,39.8,957.8z M42,961.8h2
		h2v18c0,1.1,0.9,2,2,2h0.2l-1.6,1.6l-2.6,2.6l-2.6-2.6l-1.6-1.6H40c1.1,0,2-0.9,2-2V961.8z M65.8,961.8c-0.4,0-0.9,0.2-1.2,0.6
		l-4,4l-5,5c-0.8,0.8-0.8,2,0,2.8c0.4,0.4,0.9,0.6,1.5,0.6h3v18c0,1.1,0.9,2,2,2h4h4c1.1,0,2-0.9,2-2v-18h3c1.1,0,2-0.9,2-2
		c0-0.5-0.2-1.1-0.6-1.5l-5-5l-4-4C67,961.9,66.4,961.7,65.8,961.8z M66,966.6l2.6,2.6l1.6,1.6H70c-1.1,0-2,0.9-2,2v18h-2h-2v-18
		c0-1.1-0.9-2-2-2h-0.2l1.6-1.6L66,966.6z M7.8,995.8c-1,0.1-1.8,1-1.8,2v36c0,1.1,0.9,2,2,2h14c1.1,0,2-0.9,2-2v-6.1
		c2.9,2.2,5.6,4.3,8.8,6.1c4.3,2.4,9.5,4,17.2,4c8.3,0,17.8-4.5,25.6-8.8c7.7-4.3,13.4-8.5,13.5-8.6c0,0,0.1-0.1,0.1-0.1
		c1.5-1,2.7-1.8,3.6-3.1c0.9-1.3,1.2-2.8,1.2-4.5c0-1.5-0.7-2.9-1.6-3.7c-0.9-0.9-2-1.4-3-1.7c-2-0.6-4-0.6-4.5-0.6
		c-2.5,0-5.1,1.1-7.2,2.2c-1.3,0.6-1.6,0.8-2.3,1.2c-1-2.6-3.5-4.4-6.5-4.4H50.7c-5.7-5-15.3-5.9-26.7-6v-2c0-1.1-0.9-2-2-2H8
		C7.9,995.8,7.9,995.8,7.8,995.8z M10,999.8h10v1.8c0,0.1,0,0.1,0,0.2v22c0,0.1,0,0.1,0,0.2v7.8H10V999.8L10,999.8z M24,1003.8
		c11.6,0.1,20.7,1.5,24.6,5.3c0.4,0.4,0.9,0.6,1.4,0.6h19c1.7,0,3,1.3,3,3s-1.3,3-3,3H40c-1.1,0-2,0.9-2,2c0,1.1,0.9,2,2,2
		c0,0,0,0,0.1,0h29c3.2,0,5.7-2.2,6.6-5.1c0.2-0.1,0.3-0.1,0.5-0.2c0,0,1.5-1,3.5-1.9c1.9-0.9,4.4-1.8,5.5-1.8c0.5,0,2,0,3.3,0.4
		c0.6,0.2,1.1,0.4,1.4,0.7c0.3,0.2,0.3,0.4,0.3,0.9c0,1.3-0.1,1.7-0.5,2.2s-1.2,1.2-2.6,2.1c0,0,0,0-0.1,0.1c0,0-5.7,4.2-13.2,8.4
		s-16.9,8.2-23.7,8.2c-7.2,0-11.5-1.4-15.3-3.5c-3.5-2-6.6-4.7-10.7-7.6V1003.8L24,1003.8z"/>
</g>
</svg>
